<svg width="150" height="150" viewBox="0 0 150 150" fill="none" xmlns="http://www.w3.org/2000/svg">
<circle cx="75" cy="75" r="74.5" stroke="#0066FF"/>
<path fill-rule="evenodd" clip-rule="evenodd" d="M94 68.5L89.125 63.625L77.945 52.445L74.5 49L71.055 52.445L59.875 63.625L55 68.5H64.75V91.25H84.25V68.5H94ZM74.5 55.8932L82.2317 63.625H79.375V86.375H69.625V63.625H66.7682L74.5 55.8932ZM67.1875 96.125C66.541 96.125 65.921 96.3818 65.4639 96.8389C65.0068 97.296 64.75 97.916 64.75 98.5625C64.75 99.209 65.0068 99.829 65.4639 100.286C65.921 100.743 66.541 101 67.1875 101H81.8125C82.459 101 83.079 100.743 83.5361 100.286C83.9932 99.829 84.25 99.209 84.25 98.5625C84.25 97.916 83.9932 97.296 83.5361 96.8389C83.079 96.3818 82.459 96.125 81.8125 96.125H67.1875Z" fill="#0066FF"/>
</svg>
